<?xml version="1.0" encoding="utf-8"?>
<!-- Generator: Adobe Illustrator 26.5.0, SVG Export Plug-In . SVG Version: 6.00 Build 0)  -->
<svg version="1.1" id="Layer_1" xmlns="http://www.w3.org/2000/svg" xmlns:xlink="http://www.w3.org/1999/xlink" x="0px" y="0px"
	 viewBox="0 0 89.8 25.2" style="enable-background:new 0 0 89.8 25.2;" xml:space="preserve">
<style type="text/css">
	.st0{fill:#75B9B9;}
	.st1{fill:#C4C4C4;}
</style>
<g>
	<path class="st0" d="M68.5,13c0,6.5-4.3,10.7-11.1,10.7h-6.3V2.2h6.3C64.3,2.2,68.5,6.3,68.5,13z M64.1,13c0-4.1-2.5-6.4-6.9-6.4
		h-1.9v12.8h2C61.7,19.3,64.1,17,64.1,13z"/>
	<path class="st1" d="M19,14.5l2.6,1.8l-5.6,7.9l-13-9.2l1.8-2.6l10.5,7.5L19,14.5z"/>
	<path class="st1" d="M68.5,23.7l9.7-21.5h0.1l9.7,21.5h-4.4l-5.3-12.3l-5.3,12.3H68.5z"/>
	<path class="st0" d="M9.5,11L6.9,9.2l5.6-7.9l13,9.2l-1.8,2.6L13.2,5.6L9.5,11z"/>
	<path class="st1" d="M29,23.7l9.7-21.5h0.1l9.7,21.5h-4.4l-5.3-12.3l-5.3,12.3H29z"/>
	<path class="st0" d="M10.4,11.8l-2.3-1.7l5.1-7.2L25,11.3l-1.7,2.4l-9.5-6.8L10.4,11.8z"/>
	<path class="st1" d="M18,13.8l2.3,1.7l-5.1,7.1L3.4,14.3l1.7-2.4l9.5,6.8L18,13.8z"/>
</g>
</svg>
